PathFileType	4	(X/Y/Z)	c:/Users/goper/Files/vsCode/490R/osim_files/C15/C15_Static01.trc
DataRate	CameraRate	NumFrames	NumMarkers	Units                	OrigDataRate	OrigDataStartFrame	OrigNumFrames
250.00	250.00	9	36	mm	250.0	2324	3717
                Frame#	Time	LPSIS			LASIS			LTH1			LTH2			LTH3			LTH4			LLFE			LMFE			LSH1			LSH2			LSH3			LSH4			LLMAL			LMMAL			LCAL			LMTP5			LTOE			LMTP1			RPSIS			RASIS			RTH1			RTH2			RTH3			RTH4			RLFE			RMFE			RSH1			RSH2			RSH3			RSH4			RLMAL			RMMAL			RCAL			RMTP1			RTOE			RMTP5		
		X1	Y1	Z1	X2	Y2	Z2	X3	Y3	Z3	X4	Y4	Z4	X5	Y5	Z5	X6	Y6	Z6	X7	Y7	Z7	X8	Y8	Z8	X9	Y9	Z9	X10	Y10	Z10	X11	Y11	Z11	X12	Y12	Z12	X13	Y13	Z13	X14	Y14	Z14	X15	Y15	Z15	X16	Y16	Z16	X17	Y17	Z17	X18	Y18	Z18	X19	Y19	Z19	X20	Y20	Z20	X21	Y21	Z21	X22	Y22	Z22	X23	Y23	Z23	X24	Y24	Z24	X25	Y25	Z25	X26	Y26	Z26	X27	Y27	Z27	X28	Y28	Z28	X29	Y29	Z29	X30	Y30	Z30	X31	Y31	Z31	X32	Y32	Z32	X33	Y33	Z33	X34	Y34	Z34	X35	Y35	Z35	X36	Y36	Z36

2324	9.29200	-379.21140	1024.47900	446.54123	-219.59814	1003.04474	364.51849	-292.93481	625.91125	282.54880	-299.52145	580.15845	292.66016	-241.69843	627.15601	293.05713	-247.08575	581.75208	298.62976	-308.82809	500.75021	310.91992	-290.33450	475.38412	427.75851	-383.62881	397.31387	301.15060	-387.40448	354.09271	291.72586	-322.76437	390.18832	289.26016	-334.69485	347.23984	281.40045	-372.60684	88.83439	323.26959	-341.09314	103.87961	409.85602	-426.75433	58.27588	376.21317	-259.38754	36.76180	276.18176	-192.60576	57.58416	328.23581	-217.87070	38.59447	389.11496	-366.46985	1024.79272	564.42151	-205.71059	1004.68384	616.75916	-291.34497	645.53168	688.40497	-291.85168	599.31580	682.78638	-231.23689	639.35889	681.30243	-240.64223	592.41217	680.68561	-287.46262	497.14993	661.47809	-298.05127	472.98868	543.80402	-382.11124	399.50604	678.28412	-385.46890	356.58975	684.81677	-321.27661	388.26974	686.03668	-333.76035	348.34796	693.03809	-377.40833	87.29435	645.25153	-337.64163	102.46381	561.44061	-432.22006	58.40001	590.59192	-225.86166	37.99714	586.39874	-200.99080	54.64381	645.03796	-271.95291	30.88766	698.72803
2325	9.29600	-379.21237	1024.45142	446.52908	-219.58871	1003.06671	364.53183	-292.92557	625.93439	282.55811	-299.53900	580.19739	292.70093	-241.67513	627.16882	293.07175	-247.07410	581.78333	298.66647	-308.82602	500.76483	310.92294	-290.35690	475.38834	427.77090	-383.63950	397.31323	301.20282	-387.40240	354.10587	291.73303	-322.76245	390.21329	289.28094	-334.69537	347.26526	281.40054	-372.61734	88.82671	323.29767	-341.11237	103.88783	409.86209	-426.74921	58.25472	376.23306	-259.65323	36.51989	276.21283	-192.60362	57.58958	328.26138	-217.86894	38.62511	389.14392	-366.44119	1024.78381	564.42853	-205.69785	1004.68506	616.78290	-291.33246	645.54266	688.40521	-291.84076	599.30170	682.79089	-231.23306	639.36499	681.31573	-240.63994	592.41711	680.70544	-287.47797	497.14392	661.48700	-298.05457	472.99808	543.80994	-382.10312	399.49405	678.27557	-385.47134	356.59143	684.82782	-321.28482	388.26721	686.07495	-333.76926	348.35413	693.05664	-377.40860	87.28938	645.25287	-337.63785	102.49451	561.44806	-432.20938	58.38538	590.58575	-225.85092	38.02717	586.39832	-201.00566	54.65694	645.06018	-271.96564	30.86591	698.71967
2326	9.30000	-379.19342	1024.44775	446.52637	-219.60420	1003.07843	364.54056	-292.94360	625.93646	282.57062	-299.55731	580.16888	292.73883	-241.68712	627.20123	293.07916	-247.09792	581.79559	298.67746	-308.82022	500.77274	310.92136	-290.35757	475.40088	427.78284	-383.69952	397.33469	301.22473	-387.38290	354.10132	291.74789	-322.77109	390.23907	289.28470	-334.70282	347.27313	281.40262	-372.61774	88.84580	323.28885	-341.09024	103.90685	409.84811	-426.74008	58.23047	376.26663	-259.66867	36.54330	276.21768	-192.59831	57.61672	328.25949	-217.83974	38.63929	389.14493	-366.41544	1024.76343	564.40552	-205.70038	1004.68408	616.77856	-291.32370	645.53741	688.41980	-291.81830	599.31628	682.78436	-231.23402	639.36444	681.32990	-240.63289	592.42108	680.70465	-287.44461	497.14917	661.53119	-298.03116	473.02988	543.78632	-382.10342	399.50452	678.27142	-385.47824	356.61264	684.81812	-321.51712	388.20151	685.97510	-333.78152	348.36206	693.06421	-377.41309	87.30174	645.25348	-337.64734	102.51384	561.43634	-432.21625	58.37577	590.56659	-225.85583	38.02647	586.40033	-200.98079	54.68772	645.07422	-271.96518	30.88696	698.73102
2327	9.30400	-379.19962	1024.44189	446.53864	-219.60120	1003.06970	364.54120	-292.91931	625.93488	282.58310	-299.53714	580.18121	292.75851	-241.67552	627.20630	293.08459	-247.06535	581.79523	298.69107	-308.79285	500.77710	310.92432	-290.35989	475.40375	427.78677	-383.65536	397.33542	301.22705	-387.38150	354.11444	291.73801	-322.74588	390.23019	289.30243	-334.69785	347.29123	281.41217	-372.63223	88.84624	323.28848	-341.09991	103.91635	409.83984	-426.77567	58.27520	376.24255	-259.67548	36.54631	276.19980	-192.60732	57.59871	328.25842	-217.83388	38.66778	389.11612	-366.39124	1024.77124	564.40143	-205.65341	1004.72028	616.78345	-291.28891	645.55090	688.41296	-291.80966	599.31549	682.75677	-231.19547	639.36841	681.31519	-240.58130	592.43164	680.71265	-287.41040	497.14737	661.50287	-298.02386	473.02560	543.80597	-382.06598	399.50159	678.26813	-385.48853	356.61981	684.82513	-321.47717	388.22397	685.97894	-333.74817	348.36603	693.05060	-377.36096	87.32215	645.26141	-337.64914	102.51210	561.42719	-432.19614	58.39900	590.55792	-225.82936	38.05520	586.38239	-201.00687	54.67268	645.07196	-271.93909	30.88555	698.72009
2328	9.30800	-379.21179	1024.46460	446.54495	-219.58461	1003.05389	364.54391	-292.90948	625.93768	282.57748	-299.51828	580.18011	292.72760	-241.67653	627.17053	293.09552	-247.07512	581.79065	298.68417	-308.79916	500.78107	310.92218	-290.30255	475.42252	427.80209	-383.66760	397.30701	301.24127	-387.35306	354.11490	291.73047	-322.72778	390.24194	289.30478	-334.71109	347.28055	281.41177	-372.64566	88.82375	323.24481	-341.08276	103.91125	409.84204	-426.71991	58.25342	376.25018	-259.41183	36.81325	276.16495	-192.60201	57.60944	328.24826	-217.85011	38.66040	389.10587	-366.38052	1024.79114	564.42468	-205.64087	1004.70905	616.78381	-291.24356	645.55402	688.41888	-291.75931	599.34802	682.77887	-231.17513	639.37506	681.31720	-240.56830	592.42639	680.70844	-287.39716	497.17505	661.50604	-297.97430	473.02127	543.78143	-382.04910	399.51587	678.26880	-385.45435	356.62494	684.83911	-321.47440	388.20749	685.96509	-333.72681	348.35535	693.05579	-377.37646	87.31266	645.26483	-337.64343	102.50568	561.44153	-432.15970	58.40827	590.57410	-225.82619	38.05039	586.37012	-200.96823	54.65219	645.05133	-271.91962	30.90597	698.71924
2329	9.31200	-379.18176	1024.48022	446.57239	-219.58508	1003.02545	364.54660	-292.90085	625.92072	282.58536	-299.47989	580.15900	292.68130	-241.67004	627.15021	293.08856	-247.07437	581.77350	298.69629	-308.76935	500.76538	310.93918	-290.24362	475.41666	427.83191	-383.57748	397.30310	301.18546	-387.35034	354.10605	291.73257	-322.72424	390.21835	289.30695	-334.69016	347.24908	281.41653	-372.58762	88.83212	323.28842	-341.04965	103.89696	409.82956	-426.73239	58.29271	376.23471	-259.39194	36.80062	276.17111	-192.59505	57.58181	328.23843	-217.83971	38.62652	389.11676	-366.32629	1024.81824	564.45483	-205.63850	1004.69574	616.79749	-291.22522	645.57446	688.45300	-291.72061	599.34052	682.81329	-231.16780	639.35968	681.31610	-240.54987	592.41223	680.70459	-287.35568	497.16348	661.53320	-297.94409	473.03030	543.78668	-382.02911	399.52667	678.29895	-385.44296	356.63449	684.83911	-321.49030	388.19122	685.95160	-333.69641	348.34268	693.05157	-377.32996	87.34737	645.27557	-337.64975	102.47970	561.44714	-432.16940	58.43166	590.57043	-225.84340	38.00731	586.37500	-200.97459	54.64123	645.04657	-271.89423	30.92171	698.72351
2330	9.31600	-379.22388	1024.48328	446.59781	-219.58153	1002.99768	364.55737	-292.89993	625.90094	282.59000	-299.54340	580.05359	292.71292	-241.67693	627.11987	293.07880	-247.09808	581.73511	298.68439	-308.78210	500.73642	310.95169	-290.22546	475.42917	427.81433	-383.56201	397.29919	301.16507	-387.33987	354.10617	291.75458	-322.73697	390.20193	289.30664	-334.65955	347.24271	281.42676	-372.56113	88.83543	323.28854	-341.06232	103.88638	409.83661	-426.68994	58.27031	376.24692	-259.64487	36.50923	276.21826	-192.61873	57.55165	328.23950	-217.82719	38.60549	389.10172	-366.38998	1024.83911	564.49384	-205.62433	1004.69336	616.78876	-291.18677	645.58887	688.48480	-291.71597	599.35205	682.83612	-231.15514	639.34650	681.33032	-240.55836	592.39368	680.72876	-287.36273	497.17188	661.52838	-297.93518	473.03110	543.81787	-382.02026	399.53992	678.33759	-385.41077	356.63589	684.86475	-321.51550	388.13663	685.95984	-333.69083	348.33813	693.05219	-377.31674	87.33545	645.29626	-337.63840	102.47149	561.44525	-432.20209	58.44547	590.60156	-225.87001	37.94619	586.36194	-200.99240	54.59953	645.04547	-271.90656	30.93108	698.74396
2331	9.32000	-379.23633	1024.50513	446.62387	-219.56079	1002.96661	364.54770	-292.90073	625.87421	282.59796	-299.53271	579.95367	292.75262	-241.66446	627.11145	293.08340	-247.05455	581.71857	298.67947	-308.76132	500.71640	310.97360	-290.24670	475.40634	427.81052	-383.53101	397.29102	301.14923	-387.31604	354.06863	291.74542	-322.69336	390.17691	289.29691	-334.63989	347.21954	281.44064	-372.58749	88.81892	323.28397	-341.05447	103.86927	409.85815	-426.73926	58.33011	376.22653	-259.63895	36.48907	276.22739	-192.62544	57.51107	328.23886	-217.87022	38.52298	389.09845	-366.39658	1024.85510	564.53882	-205.63924	1004.66125	616.79071	-291.22327	645.56689	688.49030	-291.69739	599.34546	682.85889	-231.13583	639.32501	681.34015	-240.55185	592.37622	680.72815	-287.33353	497.15790	661.54816	-297.94000	473.01447	543.85724	-382.02606	399.52936	678.35895	-385.41638	356.61523	684.88586	-321.20459	388.20438	686.08301	-333.71039	348.29739	693.06824	-377.35782	87.31721	645.28027	-337.61615	102.44733	561.44568	-432.24551	58.45813	590.61554	-225.89185	37.89259	586.39105	-201.00659	54.58855	645.02545	-271.92026	30.91918	698.74463
2332	9.32400	-379.24100	1024.53540	446.64838	-219.55659	1002.95795	364.55518	-292.91122	625.86212	282.61169	-299.55930	579.98462	292.77127	-241.67154	627.09192	293.07816	-247.05138	581.71753	298.68723	-308.74753	500.72070	310.97095	-290.22122	475.40601	427.83115	-383.52191	397.30203	301.13251	-387.32022	354.08221	291.76019	-322.73270	390.16162	289.31253	-334.62891	347.21155	281.45154	-372.57047	88.81845	323.29102	-341.06833	103.85302	409.86945	-426.73199	58.33681	376.20740	-259.65359	36.47858	276.22949	-192.62181	57.48521	328.24893	-217.87585	38.49649	389.11963	-366.38297	1024.86414	564.57294	-205.62650	1004.64740	616.80505	-291.20587	645.54901	688.51776	-291.72189	599.31116	682.89368	-231.13147	639.31183	681.34857	-240.55859	592.35388	680.74048	-287.38531	497.12949	661.57123	-297.94406	473.00751	543.87146	-382.01807	399.51746	678.38007	-385.39325	356.57413	684.91180	-321.21695	388.18597	686.08917	-333.71756	348.28223	693.06708	-377.36243	87.31561	645.30872	-337.63943	102.42941	561.46161	-432.22763	58.45605	590.63123	-225.88760	37.86850	586.38684	-201.02928	54.54176	645.00586	-271.92307	30.92493	698.76196
